<?xml version="1.0" standalone="no"?><!DOCTYPE svg PUBLIC "-//W3C//DTD SVG 1.1//EN" "http://www.w3.org/Graphics/SVG/1.1/DTD/svg11.dtd"><svg t="1748963087876" class="icon" viewBox="0 0 1024 1024" version="1.1" xmlns="http://www.w3.org/2000/svg" p-id="7900" xmlns:xlink="http://www.w3.org/1999/xlink" width="200" height="200"><path d="M511.645074 272.530286a327.716571 327.716571 0 0 1 327.899429 327.424v318.610285H183.745646v-318.610285a327.716571 327.716571 0 0 1 327.899428-327.424z m210.907429 233.398857c-56.027429 2.304-85.357714 33.426286-87.405714 83.017143-2.194286 47.981714 22.747429 78.518857 74.678857 91.648 26.514286 7.314286 40.301714 18.907429 41.398857 34.962285 0 20.370286-9.581714 30.573714-28.672 30.573715-20.114286-1.462857-31.268571-12.361143-33.316572-32.804572h-57.307428c2.121143 55.369143 32.329143 83.675429 90.624 85.174857 54.637714-7.094857 79.542857-32.768 82.724571-85.211428 0-26.806857-17.92-61.074286-58.953143-68.937143-26.550857-8.740571-58.587429-24.429714-61.586285-48.530286-3.181714-25.892571 21.942857-35.328 37.814857-35.328 16.969143 1.462857 25.965714 10.971429 27.062857 28.416h55.661714c-3.218286-55.296-36.681143-83.017143-82.724571-83.017143z m-182.089143 0c-58.221714 4.388571-88.685714 53.869714-91.428571 148.48 2.779429 93.147429 33.206857 141.165714 91.428571 144.091428 58.258286-2.925714 88.758857-50.944 91.428571-144.091428-2.706286-94.610286-33.170286-144.164571-91.428571-148.48z m-183.588571 0c-56.064 2.304-85.394286 33.426286-87.478858 83.017143-2.157714 47.981714 22.784 78.518857 74.715429 91.648 26.514286 7.314286 40.301714 18.907429 41.398857 34.962285 0 20.370286-9.581714 30.573714-28.672 30.573715-20.114286-1.462857-31.268571-12.361143-33.316571-32.804572H266.214217c2.121143 55.369143 32.329143 83.675429 90.624 85.174857 54.637714-7.094857 79.542857-32.768 82.724572-85.211428 0-26.806857-17.92-61.074286-58.953143-68.937143-26.550857-8.740571-58.587429-24.429714-61.586286-48.530286-3.181714-25.892571 21.942857-35.328 37.814857-35.328 16.969143 1.462857 25.965714 10.971429 27.062857 28.416h55.661715c-3.218286-55.296-36.681143-83.017143-82.724572-83.017143zM540.426789 548.571429c38.619429 0 56.173714 55.149714 54.820571 104.484571 0 48.164571-18.614857 107.483429-55.844571 107.483429-35.84 0-53.796571-59.318857-53.796572-107.52 0-49.298286 17.92-104.448 53.796572-104.448zM71.434789 918.564571H952.001646a34.523429 34.523429 0 0 1 0 68.864H71.434789a34.523429 34.523429 0 0 1 0-68.864zM982.355931 311.808a31.890286 31.890286 0 0 1-11.666285 43.446857l-100.681143 58.258286-31.670857-55.113143 100.681143-58.331429a31.670857 31.670857 0 0 1 43.227428 11.483429l0.073143 0.256zM40.970789 311.808A31.670857 31.670857 0 0 1 84.161646 300.141714l100.717714 58.368-31.670857 55.076572L52.52736 355.181714a31.744 31.744 0 0 1-11.666286-43.373714H41.00736zM239.882789 112.274286a31.670857 31.670857 0 0 1 43.300571 11.593143l58.185143 100.937142-55.003429 31.817143-58.148571-101.010285a31.817143 31.817143 0 0 1 11.702857-43.373715v0.073143zM511.571931 37.485714c19.017143 0 34.377143 14.262857 34.377143 32.073143V183.954286h-68.827428V69.485714c0-17.737143 15.36-32 34.523428-32h-0.073143zM783.40736 112.237714a31.890286 31.890286 0 0 1 11.629714 43.52L736.961646 256.731429l-55.003429-31.744 58.148572-101.010286a31.670857 31.670857 0 0 1 43.081142-11.702857h0.256z" fill="#000000" p-id="7901"></path></svg>