<?xml version="1.0" standalone="no"?><!DOCTYPE svg PUBLIC "-//W3C//DTD SVG 1.1//EN" "http://www.w3.org/Graphics/SVG/1.1/DTD/svg11.dtd"><svg t="1748963148167" class="icon" viewBox="0 0 1024 1024" version="1.1" xmlns="http://www.w3.org/2000/svg" p-id="11052" xmlns:xlink="http://www.w3.org/1999/xlink" width="200" height="200"><path d="M844.286962 1023.99872H179.713038A147.007541 147.007541 0 0 1 32.0015 877.695177V146.305463A147.007541 147.007541 0 0 1 179.713038 0.00192h664.573924A147.007541 147.007541 0 0 1 991.9985 146.305463v731.389714A147.007541 147.007541 0 0 1 844.286962 1023.99872z m73.855769-877.693257c0-40.383874-33.023897-73.151771-73.855769-73.151772H179.713038c-40.831872 0-73.855769 32.767898-73.855769 73.151772v731.389714c0 40.383874 33.023897 73.151771 73.855769 73.151772h664.573924c19.583939 0 38.39988-7.679976 52.223836-21.439933 13.887957-13.695957 21.631932-32.319899 21.631933-51.711839V146.305463z m-628.030038 585.150171h443.774614a36.543886 36.543886 0 0 1 0 73.087772H290.112693a36.543886 36.543886 0 0 1 0-73.087772z m0-146.303543h443.774614a36.543886 36.543886 0 0 1 0 73.151772H290.112693a36.543886 36.543886 0 0 1 0-73.151772z m27.455915-365.694857h167.359477a63.9998 63.9998 0 0 1 63.9998 63.9998V448.00052a63.9998 63.9998 0 0 1-63.9998 63.9998H317.568608a63.9998 63.9998 0 0 1-63.9998-63.9998V283.457034a63.9998 63.9998 0 0 1 63.9998-63.9998z m157.503507 187.391415V324.544906a31.9999 31.9999 0 0 0-31.9999-31.9999H359.360477a31.9999 31.9999 0 0 0-31.9999 31.9999v82.303743a31.9999 31.9999 0 0 0 31.9999 31.9999h83.711738a31.9999 31.9999 0 0 0 31.9999-31.9999z" fill="#000000" p-id="11053"></path></svg>