<?xml version="1.0" standalone="no"?><!DOCTYPE svg PUBLIC "-//W3C//DTD SVG 1.1//EN" "http://www.w3.org/Graphics/SVG/1.1/DTD/svg11.dtd"><svg t="1748963184748" class="icon" viewBox="0 0 1024 1024" version="1.1" xmlns="http://www.w3.org/2000/svg" p-id="13764" xmlns:xlink="http://www.w3.org/1999/xlink" width="200" height="200"><path d="M561.152 947.712c-6.656 0-13.312-2.56-18.432-7.68-9.728-10.24-9.728-26.624 0.512-36.352l342.016-332.288c39.424-34.816 61.952-83.968 61.952-135.68 0-99.328-80.896-180.224-180.224-180.224s-180.224 80.896-180.224 180.224c0 14.336-11.264 25.6-25.6 25.6s-25.6-11.264-25.6-25.6c0-99.328-80.896-180.224-180.224-180.224S175.104 336.384 175.104 435.712c0 14.336-11.264 25.6-25.6 25.6s-25.6-11.264-25.6-25.6c0-127.488 103.936-231.424 231.424-231.424 89.6 0 167.424 51.2 205.824 125.44 38.4-74.752 116.224-125.44 205.824-125.44 127.488 0 231.424 103.936 231.424 231.424 0 66.56-28.672 129.536-78.336 173.568l-340.992 331.264c-5.12 5.12-11.264 7.168-17.92 7.168z" fill="#666666" p-id="13765"></path><path d="M329.728 941.056c-6.656 0-12.8-2.56-17.92-7.168l-182.784-177.664c-28.16-25.088-45.056-61.952-45.056-100.864 0-74.752 60.928-135.68 135.68-135.68 45.056 0 85.504 22.016 110.08 56.32 24.576-34.304 64.512-56.32 110.08-56.32 74.752 0 135.68 60.928 135.68 135.68 0 33.792-12.8 66.56-35.328 91.136l-192.512 186.88c-4.608 5.12-11.264 7.68-17.92 7.68zM220.16 570.88c-46.592 0-84.48 37.888-84.48 84.48 0 24.064 10.24 47.104 28.672 62.976l165.888 160.768 173.056-168.448c13.312-14.336 20.992-34.816 20.992-55.808 0-46.592-37.888-84.48-84.48-84.48s-84.48 37.888-84.48 84.48c0 14.336-11.264 25.6-25.6 25.6s-25.6-11.264-25.6-25.6c0-46.08-37.888-83.968-83.968-83.968z" fill="#666666" p-id="13766"></path></svg>