<?xml version="1.0" standalone="no"?><!DOCTYPE svg PUBLIC "-//W3C//DTD SVG 1.1//EN" "http://www.w3.org/Graphics/SVG/1.1/DTD/svg11.dtd"><svg t="1748962923526" class="icon" viewBox="0 0 1024 1024" version="1.1" xmlns="http://www.w3.org/2000/svg" p-id="1523" xmlns:xlink="http://www.w3.org/1999/xlink" width="200" height="200"><path d="M512 512m-512 0a512 512 0 1 0 1024 0 512 512 0 1 0-1024 0Z" fill="#DCDCDC" p-id="1524"></path><path d="M409.92 541.76a21.92 21.92 0 0 0-30.4 0L192 728.32c-8.32 8.32-8.32 22.08 0 30.4l90.24 90.24a21.536 21.536 0 0 0 30.72 0l187.52-186.56c8.32-8.32 8.32-22.08 0-30.4l-90.56-90.24z m44.16 105.28l-156.8 156.16-59.52-59.52 156.8-156.16 59.52 59.52zM606.08 457.28c5.76 0 11.2-2.24 15.36-6.4l59.52-59.52 7.68 7.68c8.32 8.32 22.08 8.32 30.72 0l87.68-87.68c8.32-8.32 8.32-22.08 0-30.72l-46.08-46.08a22.016 22.016 0 0 0-30.72 0l-87.68 87.68c-8.32 8.32-8.32 22.08 0 30.72l7.68 7.68-59.52 59.52c-8.32 8.32-8.32 22.08 0 30.72 4.16 4.16 9.6 6.4 15.36 6.4z m82.24-119.68l56.96-56.96 15.68 15.68L704 353.28l-15.68-15.68z" fill="#2A2C2C" p-id="1525"></path><path d="M506.88 400.96a166.08 166.08 0 0 0-135.36-231.04 160.64 160.64 0 0 0-101.76 22.4 21.216 21.216 0 0 0-4.48 32.96l84.48 87.68-21.12 20.48-83.52-86.4a21.344 21.344 0 0 0-17.6-6.4 20.16 20.16 0 0 0-15.68 9.92c-12.16 20.48-19.52 42.88-22.08 67.2-4.48 44.16 8.32 87.36 36.48 121.6a164.416 164.416 0 0 0 111.68 60.16c26.56 2.56 52.8-0.96 77.44-10.56l325.76 337.92c3.84 4.16 9.28 6.4 14.72 6.4h0.32c5.44 0 10.88-2.24 14.72-6.08l60.8-58.56c8.32-8 8.64-21.44 0.64-30.08L506.88 400.96z m250.24 381.12L435.52 448.64a21.536 21.536 0 0 0-24.96-4.16c-21.12 10.88-44.8 15.36-68.48 12.8-32.96-3.2-62.4-19.2-83.2-44.8-20.8-25.6-30.4-57.6-27.2-90.56 0.96-8 2.24-15.68 4.48-23.36l76.16 79.04c8 8.32 21.44 8.64 30.08 0.64l51.84-49.92c4.16-3.84 6.4-9.28 6.4-14.72 0-5.76-1.92-11.2-6.08-15.04L316.48 216.96c16.32-5.44 33.28-7.04 50.88-5.44a123.744 123.744 0 0 1 95.68 182.72c-4.48 8-3.2 18.24 3.2 24.96L787.2 752.96l-30.08 29.12z" fill="#2A2C2C" p-id="1526"></path></svg>