<?xml version="1.0" standalone="no"?><!DOCTYPE svg PUBLIC "-//W3C//DTD SVG 1.1//EN" "http://www.w3.org/Graphics/SVG/1.1/DTD/svg11.dtd"><svg t="1749038951894" class="icon" viewBox="0 0 1024 1024" version="1.1" xmlns="http://www.w3.org/2000/svg" p-id="4510" xmlns:xlink="http://www.w3.org/1999/xlink" width="32" height="32"><path d="M744.727273 279.272727v558.545455a23.272727 23.272727 0 0 1-23.272728 23.272727H302.545455a23.272727 23.272727 0 0 1-23.272728-23.272727V279.272727h465.454546m69.818182-69.818182H209.454545v628.363637a93.090909 93.090909 0 0 0 93.09091 93.090909h418.90909a93.090909 93.090909 0 0 0 93.09091-93.090909V209.454545z" fill="#515151" p-id="4511"></path><path d="M430.545455 768a34.909091 34.909091 0 0 1-34.909091-34.909091v-279.272727a34.909091 34.909091 0 0 1 69.818181 0v279.272727a34.909091 34.909091 0 0 1-34.90909 34.909091zM593.454545 768a34.909091 34.909091 0 0 1-34.90909-34.909091v-279.272727a34.909091 34.909091 0 0 1 69.818181 0v279.272727a34.909091 34.909091 0 0 1-34.909091 34.909091zM884.363636 279.272727H139.636364a34.909091 34.909091 0 0 1 0-69.818182h744.727272a34.909091 34.909091 0 0 1 0 69.818182z" fill="#515151" p-id="4512"></path><path d="M613.236364 162.909091l5.818181 46.545454h-214.10909l5.818181-46.545454h202.472728m20.48-69.818182H390.283636a46.545455 46.545455 0 0 0-46.545454 40.727273L325.818182 279.272727h372.363636l-18.152727-145.454545a46.545455 46.545455 0 0 0-46.545455-40.727273z" fill="#515151" p-id="4513"></path></svg>