<?xml version="1.0" standalone="no"?><!DOCTYPE svg PUBLIC "-//W3C//DTD SVG 1.1//EN" "http://www.w3.org/Graphics/SVG/1.1/DTD/svg11.dtd"><svg t="1748963053118" class="icon" viewBox="0 0 1027 1024" version="1.1" xmlns="http://www.w3.org/2000/svg" p-id="6852" xmlns:xlink="http://www.w3.org/1999/xlink" width="200.5859375" height="200"><path d="M502.4 294.4l-108.8 201.6-57.6-60.8-102.4 64 28.8 16 64-41.6 80 80 89.6-169.6 99.2 259.2 86.4-179.2 35.2 73.6 38.4-6.4-73.6-156.8-80 172.8zM969.6 758.4c3.2-3.2 3.2-6.4 3.2-12.8 0-3.2 0-6.4-3.2-12.8-16-25.6-38.4-44.8-64-60.8s-54.4-22.4-86.4-22.4c-28.8 0-57.6 6.4-86.4 22.4s-48 35.2-64 60.8c-3.2 3.2-3.2 6.4-3.2 12.8 0 3.2 0 6.4 3.2 12.8 16 25.6 38.4 44.8 64 60.8s54.4 22.4 86.4 22.4c28.8 0 57.6-6.4 86.4-22.4 25.6-16 48-38.4 64-60.8z m-185.6-70.4c9.6-9.6 22.4-16 38.4-16 3.2 0 3.2 0 6.4 3.2 0 0 3.2 3.2 3.2 6.4s0 3.2-3.2 6.4c0 0-3.2 3.2-6.4 3.2-9.6 0-19.2 3.2-25.6 9.6-6.4 6.4-9.6 16-9.6 25.6 0 3.2 0 3.2-3.2 6.4 0 0-3.2 3.2-6.4 3.2s-3.2 0-6.4-3.2c0 0-3.2-3.2-3.2-6.4 0-16 3.2-28.8 16-38.4z m108.8 112c-22.4 12.8-48 19.2-73.6 19.2-25.6 0-51.2-6.4-73.6-19.2-22.4-12.8-41.6-32-57.6-54.4 16-25.6 38.4-44.8 64-57.6-6.4 12.8-9.6 22.4-9.6 38.4 0 19.2 6.4 38.4 22.4 51.2 16 12.8 32 22.4 54.4 22.4s38.4-6.4 54.4-22.4c16-16 22.4-32 22.4-51.2 0-12.8-3.2-25.6-9.6-38.4 25.6 12.8 48 32 64 57.6-16 22.4-32 41.6-57.6 54.4zM992 742.4c3.2 28.8-38.4 64-60.8 80h48c41.6 0 48-16 48-35.2v-44.8H992z" fill="#666666" p-id="6853"></path><path d="M656 716.8H153.6V233.6h700.8v396.8c22.4 3.2 38.4 12.8 48 16V220.8c0-19.2-12.8-35.2-32-35.2H140.8c-19.2 0-32 16-32 35.2v524.8H0v44.8c0 19.2 16 35.2 32 35.2h672c-32-25.6-89.6-73.6-48-108.8z m-217.6 28.8h134.4v22.4h-134.4v-22.4z" fill="#666666" p-id="6854"></path></svg>