<?xml version="1.0" standalone="no"?><!DOCTYPE svg PUBLIC "-//W3C//DTD SVG 1.1//EN" "http://www.w3.org/Graphics/SVG/1.1/DTD/svg11.dtd"><svg t="1748963130777" class="icon" viewBox="0 0 1024 1024" version="1.1" xmlns="http://www.w3.org/2000/svg" p-id="10043" xmlns:xlink="http://www.w3.org/1999/xlink" width="200" height="200"><path d="M448 384a32 32 0 0 0-32 32v128H160a32 32 0 0 0 0 64h288a32 32 0 0 0 32-32V416a32 32 0 0 0-32-32zM587.52 480h101.28v102.4a32 32 0 0 0 64 0V480h101.28a29.76 29.76 0 0 0 26.72-32 29.76 29.76 0 0 0-26.72-32h-101.28v-102.4a32 32 0 0 0-64 0V416h-101.28a29.76 29.76 0 0 0-26.72 32 29.76 29.76 0 0 0 26.72 32z" p-id="10044"></path><path d="M976 64H464a48 48 0 0 0-48 48v137.12a6.4 6.4 0 0 1-6.24 6.24H384V224a96 96 0 0 0-192 0v32H158.08a48 48 0 0 0-43.52 26.88s-63.04 160-104 256A81.92 81.92 0 0 0 0 576v272a48 48 0 0 0 48 48h80a128 128 0 0 0 256 0h256a128 128 0 0 0 256 0h80a48 48 0 0 0 48-48V112a48 48 0 0 0-48-48zM256 224a32 32 0 0 1 64 0v32h-64z m0 736a64 64 0 1 1 64-64 64 64 0 0 1-64 64z m512 0a64 64 0 1 1 64-64 64 64 0 0 1-64 64z m192-128h-81.28a128 128 0 0 0-221.44 0H366.72a128 128 0 0 0-221.44 0H64V581.76a18.88 18.88 0 0 1 1.92-8.96C100.96 496 141.6 384 168.96 320h240.8A70.4 70.4 0 0 0 480 249.76V128h480z" p-id="10045"></path></svg>