<?xml version="1.0" standalone="no"?><!DOCTYPE svg PUBLIC "-//W3C//DTD SVG 1.1//EN" "http://www.w3.org/Graphics/SVG/1.1/DTD/svg11.dtd"><svg t="1748962999951" class="icon" viewBox="0 0 1024 1024" version="1.1" xmlns="http://www.w3.org/2000/svg" p-id="4587" xmlns:xlink="http://www.w3.org/1999/xlink" width="200" height="200"><path d="M511.994793 285.922687L139.717311 570.845607v379.077975h744.61745v-379.077975z m40.042715 241.901736a35.741638 35.741638 0 1 1-35.741638 35.57501 35.762466 35.762466 0 0 1 35.741638-35.57501z m121.127909 172.876219l-14.069624 2.811842-6.790078 1.322607-9.258251 1.82249c-17.704191 3.644981-38.220224 7.77943-46.864035 9.924762-16.548212 4.301077-36.741404-25.473207-42.531716-26.639601-3.634566 9.60192-15.381818 36.241521-21.505385 54.445595a148.92349 148.92349 0 0 1 66.182432 23.327875c0.822724 3.634566 5.95694 22.338523 11.247369 42.854557l2.655628 9.591506 13.236487 50.800614s10.747485 20.349406-20.026565 27.79558c-27.129069 6.456823-31.430146-9.935175-32.096657-14.069625v-0.822724s-21.505385-72.305999-23.827758-76.607076a115.816653 115.816653 0 0 0-50.7902-9.60192c-9.60192 2.155746-28.628718 63.870473-48.644869 68.17155s-71.649903-21.182544-90.843329-31.107306l-3.926165-2.166159-3.311725-1.812076a23.577817 23.577817 0 0 1-7.612802-1.989118 24.994152 24.994152 0 1 1 19.34964-45.947583 245.348846 245.348846 0 0 0 58.080161 22.328109 141.48773 141.48773 0 0 0 17.870819-38.188982 560.473034 560.473034 0 0 1 21.515799-57.080395 90.603802 90.603802 0 0 0 7.112919-36.24152 15.069391 15.069391 0 0 0-16.548212 8.612568 569.814598 569.814598 0 0 1-39.084605 53.404172c-20.026564 24.494269-55.601574 2.155746-40.209342-21.338758a268.405952 268.405952 0 0 1 73.337008-79.616789 213.283432 213.283432 0 0 1 107.058285 0 99.372583 99.372583 0 0 1 54.935064 33.086009 175.70889 175.70889 0 0 0 53.112573-8.768781 25.306579 25.306579 0 0 1 33.086009 13.902997c7.112919 21.349172-18.360288 27.139484-20.82846 27.628952z m0 0" p-id="4588"></path><path d="M511.994793 74.097247L15.621345 467.557273v160.379143l496.373448-393.345469 496.383862 393.293398v-160.379143z m0 0" p-id="4589"></path></svg>