<?xml version="1.0" standalone="no"?><!DOCTYPE svg PUBLIC "-//W3C//DTD SVG 1.1//EN" "http://www.w3.org/Graphics/SVG/1.1/DTD/svg11.dtd"><svg t="1748963032147" class="icon" viewBox="0 0 1024 1024" version="1.1" xmlns="http://www.w3.org/2000/svg" p-id="5814" xmlns:xlink="http://www.w3.org/1999/xlink" width="200" height="200"><path d="M352 510.88V608h-32v-129.6A80 80 0 1 0 257.6 416H225.12A112 112 0 1 1 352 510.88zM926.88 800a112.96 112.96 0 0 0-9.664-64H960v-224l-96-96h-192v320h42.784a111.552 111.552 0 0 0-9.664 64h-33.024c-11.68 0-22.624-3.136-32.032-8.576-9.44 5.44-20.32 8.576-31.904 8.576h-289.28a112.96 112.96 0 0 0-9.664-64H544c35.52 0 64-28.576 64-63.808V287.808C608 252.608 579.36 224 544 224H128c-35.52 0-64 28.576-64 63.808v384.384c0 28.352 18.592 52.416 44.288 60.736A111.52 111.52 0 0 0 97.12 800h-33.28A63.904 63.904 0 0 1 0 736.32V223.68C0 188.544 28.864 160 63.84 160h544.32C643.424 160 672 188.736 672 223.68V352h192l160 161.184V736a64 64 0 0 1-64.096 64h-33.024zM832 544h96v32h-128v-128h32v96zM208 896a80 80 0 1 1 0-160 80 80 0 0 1 0 160z m608 0a80 80 0 1 1 0-160 80 80 0 0 1 0 160z m-480-224a16 16 0 1 1 0-32 16 16 0 0 1 0 32z" fill="#777777" p-id="5815"></path></svg>