<?xml version="1.0" standalone="no"?><!DOCTYPE svg PUBLIC "-//W3C//DTD SVG 1.1//EN" "http://www.w3.org/Graphics/SVG/1.1/DTD/svg11.dtd"><svg t="1748962951900" class="icon" viewBox="0 0 1024 1024" version="1.1" xmlns="http://www.w3.org/2000/svg" p-id="2542" xmlns:xlink="http://www.w3.org/1999/xlink" width="200" height="200"><path d="M433.7 393.21c37.81 0 71.9-22.78 86.37-57.71 14.47-34.93 6.47-75.14-20.27-101.88-26.73-26.73-66.94-34.73-101.88-20.26-34.93 14.47-57.71 48.56-57.71 86.37 0.01 51.62 41.86 93.48 93.49 93.48z m-39.82-93.49c0-16.19 9.76-30.78 24.73-36.96s32.18-2.73 43.6 8.74a40.004 40.004 0 0 1 8.56 43.64 39.987 39.987 0 0 1-37.07 24.57c-10.59 0-20.75-4.22-28.22-11.73a39.785 39.785 0 0 1-11.6-28.26z m39.82 518.04c51.63 0 93.48-41.85 93.48-93.49 0-51.63-41.85-93.49-93.48-93.49s-93.49 41.85-93.49 93.49c0.1 51.6 41.9 93.4 93.49 93.49z m-39.82-93.48c0-16.19 9.76-30.79 24.73-36.97s32.18-2.73 43.6 8.75a40.004 40.004 0 0 1 8.56 43.64 39.987 39.987 0 0 1-37.07 24.57c-22.02-0.09-39.82-17.97-39.82-39.99zM433.7 606.5c51.63 0 93.48-41.85 93.48-93.49 0-51.63-41.85-93.48-93.48-93.48s-93.49 41.85-93.49 93.48c0.1 51.59 41.9 93.39 93.49 93.49z m-39.82-93.49c0-16.19 9.76-30.78 24.73-36.96s32.18-2.73 43.6 8.74a40.004 40.004 0 0 1 8.56 43.64A39.987 39.987 0 0 1 433.7 553c-10.59 0-20.75-4.22-28.22-11.73a39.785 39.785 0 0 1-11.6-28.26z m0 0M750.78 957.03c-14.32 0-28.12-4.49-38.86-12.65l-101.36-76.95c-18.85-14.31-32.53-42.35-32.53-66.67V629.3c0-27.65 18.88-54.78 44-63.31 1.83-0.71 4.87-1.82 9.47-3.31 8.72-2.8 17.64-5.25 26.56-7.29 29.65-6.86 60.86-10.34 92.72-10.34 31.83 0 63.04 3.48 92.75 10.35 9.36 2.16 18.28 4.61 26.53 7.28 3.86 1.25 7.18 2.42 9.64 3.38 25.01 8.77 43.82 35.88 43.82 63.25v171.46c0 24.33-13.68 52.37-32.53 66.67l-101.36 76.95c-10.73 8.15-24.53 12.64-38.85 12.64z m-2.37-60.9c0.26 0.13 1.1 0.41 2.37 0.41s2.11-0.28 2.37-0.41l101.27-76.88c3.55-2.7 8.61-12.72 8.61-18.49V629.3c0-1.85-2.13-5.3-3.55-6.22l-1.3-0.47-0.2-0.08c-0.42-0.17-0.85-0.33-1.27-0.48-1.63-0.6-3.38-1.2-5.29-1.82-7.02-2.25-14.26-4.23-21.48-5.88-25.29-5.85-51.91-8.81-79.16-8.81-27.26 0-53.88 2.96-79.13 8.8-7.72 1.78-14.95 3.76-21.5 5.89-1.91 0.62-3.66 1.22-5.23 1.79l-0.11 0.04c-0.5 0.18-0.85 0.31-1.03 0.38l-0.14 0.06c-0.61 0.25-1.22 0.47-1.83 0.67-1.38 0.99-3.28 4.25-3.28 6.13v171.46c0 5.77 5.05 15.79 8.61 18.49l101.27 76.88z m-21.24-86.35c-8.06 0-15.64-3.13-21.35-8.82l-47.6-47.41c-7.7-7.59-10.78-18.79-8.03-29.25 2.75-10.48 10.97-18.73 21.45-21.53 2.55-0.68 5.18-1.03 7.81-1.03 8 0 15.82 3.25 21.46 8.93l26.2 26.09 73.51-73.62c5.72-5.72 13.32-8.88 21.41-8.88 8.07 0 15.66 3.14 21.37 8.84 11.8 11.79 11.82 30.98 0.03 42.78l-94.85 95c-5.71 5.75-13.32 8.9-21.41 8.9z" p-id="2543"></path><path d="M598.47 883.36c-15.04-11.42-27.21-29.19-34.14-48.43H301.74c-13.38 0-26.21-5.33-35.66-14.81a50.396 50.396 0 0 1-14.68-35.71V121.76h366.02v424.59c2.32-0.85 4.97-1.75 7.91-2.71 9.29-2.98 18.79-5.59 28.26-7.76 31.09-7.19 63.8-10.85 97.18-10.85 0.8 0 1.61 0.01 2.41 0.02a89.267 89.267 0 0 0 8.94-33.2l4.63-57.74a35.72 35.72 0 0 0-35.72-38.49h-55.51v-61.07c45.29-1.55 82.22-36.81 85.86-81.98l5.37-56.81c1-10.07-2.33-20.08-9.13-27.56a35.714 35.714 0 0 0-26.59-11.67h-55.51v-34.79h53.66v-2.22c0-30.66-24.85-55.51-55.51-55.51H194.23c-30.66 0-55.51 24.85-55.51 55.51v2.22h53.48v34.79h-55.51a35.705 35.705 0 0 0-26.21 11.88 35.74 35.74 0 0 0-8.95 27.36l4.44 57.92c3.72 45.13 40.61 80.35 85.86 81.98v61.07h-55.51a35.68 35.68 0 0 0-25.4 11.5 35.73 35.73 0 0 0-9.39 26.25l4.44 57.36c3.71 45.17 40.58 80.44 85.86 82.16v61.07h-55.51a35.592 35.592 0 0 0-26.36 11.36 35.557 35.557 0 0 0-9.36 27.13l5.37 58.85c3.72 45.23 40.69 80.53 86.05 82.16 1.5 44.49 38.01 79.78 82.53 79.76h50.89v32c1.43 15.09 14.09 33.62 29.24 33.64h158.77c15.31-0.16 27.9-19.1 28.87-34.39v-32h51.07c5.61-0.01 11.09-0.58 16.39-1.66l-11.31-8.57z m77.81-368.19v-60.32c7.11 0.94 13.65 4.34 18.5 9.62 5.65 6.1 8.53 14.27 7.96 22.57-0.63 14.71-11.84 26.78-26.46 28.5v-0.37z m0-299.78c16.41 1.57 28.57 15.94 27.38 32.38l-0.19 0.37c-1.11 14.6-12.62 26.26-27.2 27.57v-60.32zM191.82 754.43c-14.78-1.57-26.31-13.49-27.39-28.31a29.964 29.964 0 0 1 7.77-22.21 28.854 28.854 0 0 1 19.61-9.62v60.14z m0-238.89c-14.78-1.57-26.31-13.49-27.39-28.31-0.7-8.34 2.12-16.59 7.77-22.76a30.473 30.473 0 0 1 19.61-9.62v60.69z m0-239.45c-14.81-1.5-26.38-13.46-27.39-28.31-1.18-16.44 10.98-30.82 27.39-32.38v60.69z" opacity=".97" p-id="2544"></path><path d="M750.78 957.03c-14.32 0-28.12-4.49-38.86-12.65l-101.36-76.95c-18.85-14.31-32.53-42.35-32.53-66.67V629.3c0-27.65 18.88-54.78 44-63.31 1.83-0.71 4.87-1.82 9.47-3.31 8.72-2.8 17.64-5.25 26.56-7.29 29.65-6.86 60.86-10.34 92.72-10.34 31.83 0 63.04 3.48 92.75 10.35 9.36 2.16 18.28 4.61 26.53 7.28 3.86 1.25 7.18 2.42 9.64 3.38 25.01 8.77 43.82 35.88 43.82 63.25v171.46c0 24.33-13.68 52.37-32.53 66.67l-101.36 76.95c-10.73 8.15-24.53 12.64-38.85 12.64z m-2.37-60.9c0.26 0.13 1.1 0.41 2.37 0.41s2.11-0.28 2.37-0.41l101.27-76.88c3.55-2.7 8.61-12.72 8.61-18.49V629.3c0-1.85-2.13-5.3-3.55-6.22l-1.3-0.47-0.2-0.08c-0.42-0.17-0.85-0.33-1.27-0.48-1.63-0.6-3.38-1.2-5.29-1.82-7.02-2.25-14.26-4.23-21.48-5.88-25.29-5.85-51.91-8.81-79.16-8.81-27.26 0-53.88 2.96-79.13 8.8-7.72 1.78-14.95 3.76-21.5 5.89-1.91 0.62-3.66 1.22-5.23 1.79l-0.11 0.04c-0.5 0.18-0.85 0.31-1.03 0.38l-0.14 0.06c-0.61 0.25-1.22 0.47-1.83 0.67-1.38 0.99-3.28 4.25-3.28 6.13v171.46c0 5.77 5.05 15.79 8.61 18.49l101.27 76.88z m-21.24-86.35c-8.06 0-15.64-3.13-21.35-8.82l-47.6-47.41c-7.7-7.59-10.78-18.79-8.03-29.25 2.75-10.48 10.97-18.73 21.45-21.53 2.55-0.68 5.18-1.03 7.81-1.03 8 0 15.82 3.25 21.46 8.93l26.2 26.09 73.51-73.62c5.72-5.72 13.32-8.88 21.41-8.88 8.07 0 15.66 3.14 21.37 8.84 11.8 11.79 11.82 30.98 0.03 42.78l-94.85 95c-5.71 5.75-13.32 8.9-21.41 8.9z" p-id="2545"></path></svg>