<?xml version="1.0" standalone="no"?><!DOCTYPE svg PUBLIC "-//W3C//DTD SVG 1.1//EN" "http://www.w3.org/Graphics/SVG/1.1/DTD/svg11.dtd"><svg t="1746109126456" class="icon" viewBox="0 0 1024 1024" version="1.1" xmlns="http://www.w3.org/2000/svg" p-id="5277" xmlns:xlink="http://www.w3.org/1999/xlink" width="32" height="32"><path d="M912.32256 901.12H687.49312l-25.41568-467.97824h15.44192a10.24 10.24 0 0 0 10.24-10.24v-79.60576a10.24 10.24 0 0 0-10.24-10.24h-36.47488v-90.49088h10.58816a10.24 10.24 0 0 0 10.14784-11.56096l-6.54336-50.01216A96 96 0 0 0 560.82432 102.4h-96.58368c-46.30528 0-86.016 33.04448-94.50496 79.12448l-6.46144 49.46944a10.24 10.24 0 0 0 10.14784 11.56096h10.58816v90.49088h-36.47488a10.24 10.24 0 0 0-10.24 10.24v79.60576a10.24 10.24 0 0 0 10.24 10.24h15.44192L337.57184 901.12H114.45248a10.24 10.24 0 1 0 0 20.48h797.87008a10.24 10.24 0 1 0 0-20.48zM389.94944 184.70912A75.55072 75.55072 0 0 1 464.24064 122.88h96.58368c36.43392 0 67.67616 26.0096 74.20928 61.29664l4.94592 37.90848H385.0752l4.87424-37.376z m230.61504 57.856v90.49088H404.49024v-90.49088h216.07424zM357.77536 412.66176v-59.12576h309.504v59.12576H357.77536z m288.60416 108.88192l4.11648 75.776H374.56896l4.11648-75.776h267.69408z m-266.58816-20.48l3.6864-67.91168h258.0992l3.6864 67.91168H379.79136z m271.81056 116.736l4.11648 75.776H369.33632l4.11648-75.776h278.14912z m5.23264 96.256l4.11648 75.776H364.11392l4.11648-75.776h288.60416zM358.07232 901.12l4.92544-90.80832h299.0592L666.99264 901.12H358.07232z" p-id="5278" fill="#2c2c2c"></path><path d="M108.2368 182.12864l220.16 78.39744a10.25024 10.25024 0 0 0 6.88128-19.28192l-220.16-78.39744a10.22976 10.22976 0 1 0-6.88128 19.28192zM115.11808 398.11072l220.16-78.39744a10.24 10.24 0 0 0-6.88128-19.28192l-220.16 78.39744a10.24 10.24 0 0 0 6.88128 19.28192zM686.7968 319.71328l220.16 78.39744a10.25024 10.25024 0 0 0 6.88128-19.28192l-220.16-78.39744a10.22976 10.22976 0 1 0-6.88128 19.28192zM690.23744 261.12a10.15808 10.15808 0 0 0 3.44064-0.60416l220.16-78.39744a10.24 10.24 0 0 0-6.88128-19.29216l-220.16 78.39744a10.24 10.24 0 0 0 3.44064 19.89632z" p-id="5279" fill="#2c2c2c"></path></svg>